<?xml version="1.0" encoding="UTF-8"?>
<!DOCTYPE svg PUBLIC "-//W3C//DTD SVG 1.1//EN" "http://www.w3.org/Graphics/SVG/1.1/DTD/svg11.dtd">
<svg xmlns="http://www.w3.org/2000/svg" version="1.1" width="512px" height="512px" style="shape-rendering:geometricPrecision; text-rendering:geometricPrecision; image-rendering:optimizeQuality; fill-rule:evenodd; clip-rule:evenodd" xmlns:xlink="http://www.w3.org/1999/xlink">
<g><path style="opacity:0.935" fill="#00bf52" d="M 297.5,-0.5 C 303.5,-0.5 309.5,-0.5 315.5,-0.5C 323.021,3.20186 330.688,7.03519 338.5,11C 346.428,16.3935 354.094,22.0601 361.5,28C 370.295,37.6617 379.462,47.1617 389,56.5C 394.812,65.0419 400.812,73.3752 407,81.5C 408.351,83.019 409.851,84.3523 411.5,85.5C 418.784,96.16 426.117,106.827 433.5,117.5C 432.391,118.965 432.891,119.965 435,120.5C 449.842,145.847 459.675,173.18 464.5,202.5C 465.791,208.524 465.791,214.524 464.5,220.5C 465.724,223.131 466.391,225.965 466.5,229C 464.436,284.355 448.436,334.188 418.5,378.5C 404.91,397.791 388.91,414.958 370.5,430C 313.005,472.787 250.838,480.954 184,454.5C 177.964,450.399 171.464,447.232 164.5,445C 120.505,419.336 85.1722,385.002 58.5,342C 50.6804,326.933 44.0137,311.766 38.5,296.5C 38.6799,295.446 39.0133,294.446 39.5,293.5C 35.0578,280.792 33.0578,267.625 33.5,254C 33.8638,204.308 47.5305,159.474 74.5,119.5C 81.0023,111.832 87.669,104.332 94.5,97C 108.225,86.2726 122.225,75.9393 136.5,66C 156.861,52.8204 177.527,40.1537 198.5,28C 203.167,26 207.833,24 212.5,22C 215.432,21.0467 218.432,20.5467 221.5,20.5C 221.664,23.1873 221.497,25.854 221,28.5C 219.323,30.5252 218.323,32.8585 218,35.5C 215.878,36.2199 215.378,37.3866 216.5,39C 212.42,41.4107 209.42,44.744 207.5,49C 190.789,62.5204 173.122,74.6871 154.5,85.5C 145.029,91.8631 136.029,98.6964 127.5,106C 110.831,120.665 96.3305,137.165 84,155.5C 75.0548,169.799 67.7214,185.465 62,202.5C 55.9057,228.2 56.0724,253.867 62.5,279.5C 74.4809,318.632 94.6476,353.632 123,384.5C 124.067,385.191 125.234,385.691 126.5,386C 172.802,431.705 228.468,449.371 293.5,439C 319.041,432.91 341.707,421.41 361.5,404.5C 370.628,394.882 379.462,385.215 388,375.5C 399.8,355.885 409.3,335.218 416.5,313.5C 425.363,280.331 427.863,246.331 424,211.5C 421.583,191.265 414.583,172.599 403,155.5C 385.509,138.385 368.343,120.885 351.5,103C 347.638,100.618 343.971,97.9509 340.5,95C 334.918,92.5779 329.251,90.4113 323.5,88.5C 311.9,85.6858 300.234,83.1858 288.5,81C 283.47,80.4579 281.136,77.6246 281.5,72.5C 283.775,53.5369 287.775,34.8702 293.5,16.5C 293.818,15.3527 294.484,14.5194 295.5,14C 294.941,13.2753 294.608,12.4419 294.5,11.5C 296.431,7.77595 297.431,3.77595 297.5,-0.5 Z"/></g>
<g><path style="opacity:0.931" fill="#00bf52" d="M 200.5,72.5 C 201.5,72.5 202.5,72.5 203.5,72.5C 203.46,81.1253 202.126,89.4587 199.5,97.5C 210.4,94.9611 221.4,92.9611 232.5,91.5C 238.06,91.4869 243.394,92.4869 248.5,94.5C 249.833,95.5 249.833,96.5 248.5,97.5C 247.713,98.2421 247.047,99.0754 246.5,100C 232.179,104.509 217.512,108.175 202.5,111C 191.078,115.129 180.245,120.295 170,126.5C 167.018,129.951 163.518,132.785 159.5,135C 151.667,143.808 143.834,152.641 136,161.5C 126.542,174.703 119.709,188.87 115.5,204C 115.276,208.968 114.276,213.634 112.5,218C 112.727,219.135 113.06,220.302 113.5,221.5C 116.894,212.263 120.561,202.763 124.5,193C 126.491,181.17 131.658,171.337 140,163.5C 140.333,162.5 140.667,161.5 141,160.5C 158.935,141.249 179.768,125.749 203.5,114C 209.202,111.989 214.869,109.989 220.5,108C 230.714,105.353 240.547,106.187 250,110.5C 250.579,114.203 250.412,117.869 249.5,121.5C 235.013,122.116 220.68,123.949 206.5,127C 194.807,131.681 183.807,137.681 173.5,145C 139.256,176.577 124.422,216.41 129,264.5C 135.502,311.001 161.336,343.668 206.5,362.5C 230.505,370.822 254.839,371.655 279.5,365C 288.823,361.668 298.156,358.335 307.5,355C 309.81,354.503 312.143,354.337 314.5,354.5C 314.657,355.873 314.49,357.207 314,358.5C 311.403,360.886 308.903,363.386 306.5,366C 283.348,379.24 258.348,386.573 231.5,388C 253.814,390.928 275.481,388.594 296.5,381C 314.359,373.038 330.526,362.538 345,349.5C 347.82,344.433 351.487,340.1 356,336.5C 364.565,323.372 371.731,309.372 377.5,294.5C 388.21,258.182 386.043,223.182 371,189.5C 364.902,178.532 358.568,167.865 352,157.5C 346.8,152.635 341.967,147.468 337.5,142C 319.712,127.253 300.046,115.253 278.5,106C 277.257,103.545 275.257,102.378 272.5,102.5C 271.551,99.7925 271.551,97.1258 272.5,94.5C 274.333,93.9479 276,93.1145 277.5,92C 292.356,92.0354 306.356,95.3688 319.5,102C 362.057,124.807 393.057,157.974 412.5,201.5C 412.291,202.086 411.957,202.586 411.5,203C 414.993,210.817 417.493,218.983 419,227.5C 419.799,232.087 419.632,236.587 418.5,241C 419.752,243.041 420.419,245.375 420.5,248C 419.59,263.764 417.09,279.264 413,294.5C 395.416,344.525 363.583,384.025 317.5,413C 307.676,417.584 297.676,421.584 287.5,425C 263.831,430.942 240.164,430.942 216.5,425C 164.494,409.322 123.828,378.822 94.5,333.5C 87.6502,321.016 81.9835,308.016 77.5,294.5C 77.6082,293.558 77.9415,292.725 78.5,292C 77.3759,291.161 76.7092,289.994 76.5,288.5C 75.3055,281.027 74.3055,273.527 73.5,266C 75.9487,232.08 85.9487,200.913 103.5,172.5C 103.291,171.914 102.957,171.414 102.5,171C 104.715,168.444 106.549,165.611 108,162.5C 110.109,161.965 110.609,160.965 109.5,159.5C 123.386,138.036 139.719,117.869 158.5,99C 166.096,93.0443 173.596,87.211 181,81.5C 187.528,78.0299 194.028,75.0299 200.5,72.5 Z"/></g>
<g><path style="opacity:0.849" fill="#00bf52" d="M 321.5,158.5 C 321.5,157.833 321.167,157.5 320.5,157.5C 319.286,155.851 317.953,154.185 316.5,152.5C 300.336,142.506 285.003,131.506 270.5,119.5C 269.189,114.967 271.023,112.967 276,113.5C 283.745,113.849 291.245,115.349 298.5,118C 341.83,140.56 367.663,175.727 376,223.5C 376.752,226.894 376.585,230.227 375.5,233.5C 376.774,237.985 377.441,242.652 377.5,247.5C 377.441,252.348 376.774,257.015 375.5,261.5C 376.063,262.939 376.397,264.439 376.5,266C 374.972,271.678 373.805,277.512 373,283.5C 371.801,286.956 370.301,290.29 368.5,293.5C 368.833,294.167 369.167,294.833 369.5,295.5C 366.531,299.986 364.198,304.819 362.5,310C 357.908,316.783 353.742,323.283 350,329.5C 345.487,334.346 340.654,338.846 335.5,343C 333.348,344.413 331.014,345.246 328.5,345.5C 328.484,340.199 330.484,335.865 334.5,332.5C 334.291,331.914 333.957,331.414 333.5,331C 337.244,328.003 340.411,324.503 343,320.5C 353.367,304.735 360.2,287.402 363.5,268.5C 364.121,260.024 365.121,251.858 366.5,244C 364.663,238.459 363.663,232.626 363.5,226.5C 362.078,221.026 360.412,215.692 358.5,210.5C 358.709,209.914 359.043,209.414 359.5,209C 350.634,190.709 338.968,174.209 324.5,159.5C 323.675,158.614 322.675,158.281 321.5,158.5 Z"/></g>
<g><path style="opacity:0.936" fill="#00bf52" d="M 320.5,157.5 C 321.167,157.5 321.5,157.833 321.5,158.5C 324.86,163.235 328.86,167.568 333.5,171.5C 336.722,177.046 340.388,182.212 344.5,187C 344.043,187.414 343.709,187.914 343.5,188.5C 345.793,192.302 347.793,195.802 349.5,199C 359.223,225.916 361.223,253.75 355.5,282.5C 345.827,315.215 325.493,338.549 294.5,352.5C 250.65,369.329 209.65,364.662 171.5,338.5C 165.848,332.348 160.015,326.348 154,320.5C 149.47,313.615 145.303,306.448 141.5,299C 141.833,298.667 142.167,298.333 142.5,298C 138.911,291.608 136.411,284.775 135,277.5C 134.231,274.901 134.398,272.401 135.5,270C 133.794,264.256 132.794,258.256 132.5,252C 132.819,243.669 133.819,235.502 135.5,227.5C 137.266,194.439 151.266,168.605 177.5,150C 201.72,135.736 228.054,128.903 256.5,129.5C 256.876,140.385 257.876,151.218 259.5,162C 259.167,164.5 258.833,167 258.5,169.5C 246.692,172.363 235.025,175.863 223.5,180C 213.232,188.309 201.566,192.642 188.5,193C 186.59,191.299 185.423,189.133 185,186.5C 182.365,182.516 179.699,182.516 177,186.5C 157.435,215.568 153.602,247.068 165.5,281C 180.243,312.98 206.409,329.813 244,331.5C 263.905,331.194 282.072,325.694 298.5,315C 301.881,310.793 305.547,306.793 309.5,303C 309.167,302.667 308.833,302.333 308.5,302C 310.333,299.842 312.166,297.676 314,295.5C 316.538,289.178 318.704,282.678 320.5,276C 324.773,250.634 320.773,226.801 308.5,204.5C 308.709,203.914 309.043,203.414 309.5,203C 307.59,201.299 306.423,199.133 306,196.5C 301.852,190.786 297.352,185.286 292.5,180C 290.266,178.397 287.933,176.897 285.5,175.5C 279.758,174.477 274.425,172.477 269.5,169.5C 269.709,168.914 270.043,168.414 270.5,168C 269.033,166.902 268.199,165.402 268,163.5C 267.5,153.172 267.334,142.839 267.5,132.5C 277.672,133.963 287.338,137.13 296.5,142C 304.761,146.951 312.761,152.118 320.5,157.5 Z"/></g>
<g><path style="opacity:0.875" fill="#00bf52" d="M 237.5,187.5 C 255.113,183.802 264.113,190.802 264.5,208.5C 257.877,210.655 251.21,212.488 244.5,214C 235.986,214.272 227.653,215.606 219.5,218C 215.522,219.899 212.022,222.399 209,225.5C 204.425,234.449 202.591,243.949 203.5,254C 203.038,268.067 206.538,280.567 214,291.5C 230.442,309.69 249.942,313.857 272.5,304C 286.801,293.807 294.967,280.307 297,263.5C 298.115,253.679 297.448,244.012 295,234.5C 293.415,233.624 292.415,232.291 292,230.5C 285.373,224.776 278.873,218.943 272.5,213C 269.839,207.453 269.006,201.619 270,195.5C 270.414,195.043 270.914,194.709 271.5,194.5C 287.645,201.797 298.645,212.964 304.5,228C 309.31,236.777 311.31,246.277 310.5,256.5C 311.31,266.723 309.31,276.223 304.5,285C 303.547,289.659 301.214,293.992 297.5,298C 297.833,298.333 298.167,298.667 298.5,299C 294.668,301.859 291.668,305.359 289.5,309.5C 285.073,313.274 280.406,316.608 275.5,319.5C 272.083,320.639 268.75,321.972 265.5,323.5C 239.056,328.121 217.223,320.454 200,300.5C 197.455,294.633 194.122,289.299 190,284.5C 181.246,262.264 181.413,240.097 190.5,218C 192.076,215.094 193.743,212.26 195.5,209.5C 206.934,198.398 220.6,191.565 236.5,189C 237.056,188.617 237.389,188.117 237.5,187.5 Z"/></g>
<g><path style="opacity:0.918" fill="#00bf52" d="M 479.5,212.5 C 480.552,212.351 481.552,212.517 482.5,213C 484.833,214.833 487.167,216.667 489.5,218.5C 491.347,223.237 494.014,227.403 497.5,231C 497.167,231.333 496.833,231.667 496.5,232C 498.377,237.067 500.377,242.067 502.5,247C 502.727,259.033 502.393,271.2 501.5,283.5C 500.914,283.709 500.414,284.043 500,284.5C 497.702,300.17 493.535,315.67 487.5,331C 478.463,352.108 467.963,372.275 456,391.5C 439.818,410.863 422.984,429.863 405.5,448.5C 400.387,452.897 395.053,457.064 389.5,461C 383.887,463.314 378.22,465.314 372.5,467C 366.509,467.499 360.509,467.666 354.5,467.5C 355.536,463.575 357.369,459.909 360,456.5C 367.993,448.167 376.16,440.333 384.5,433C 389.346,426.488 395.179,420.988 402,416.5C 405.977,410.029 410.81,404.363 416.5,399.5C 424.702,386.616 432.869,374.283 441,362.5C 445.634,351.822 450.467,341.322 455.5,331C 454.978,330.439 454.645,329.772 454.5,329C 457.412,323.048 460.078,317.048 462.5,311C 461.919,310.107 461.585,309.107 461.5,308C 464.203,299.562 466.87,291.229 469.5,283C 468.903,281.938 468.57,280.772 468.5,279.5C 470.109,272.445 471.609,265.445 473,258.5C 473.32,248.398 474.487,238.565 476.5,229C 474.996,223.022 475.996,217.522 479.5,212.5 Z"/></g>
<g><path style="opacity:0.942" fill="#00bf52" d="M 254.5,218.5 C 272.353,219.11 284.353,227.777 290.5,244.5C 295.866,273.424 284.199,290.091 255.5,294.5C 231.77,291.275 219.437,277.775 218.5,254C 218.339,247.961 219.672,242.295 222.5,237C 230.928,227.018 241.594,220.852 254.5,218.5 Z"/></g>
<g><path style="opacity:0.901" fill="#00bf52" d="M 31.5,320.5 C 33.3084,320.491 34.9751,320.991 36.5,322C 38.2588,324.382 40.2588,326.548 42.5,328.5C 53.5626,346.746 65.0626,365.746 77,385.5C 107.102,422.306 144.602,448.472 189.5,464C 213.646,469.658 237.646,475.492 261.5,481.5C 260.116,487.251 256.449,490.251 250.5,490.5C 250.5,491.5 250.5,492.5 250.5,493.5C 232.5,493.5 214.5,493.5 196.5,493.5C 196.5,492.5 196.5,491.5 196.5,490.5C 190.688,490.063 185.022,488.897 179.5,487C 118.864,462.351 71.8643,422.017 38.5,366C 38.8333,365.667 39.1667,365.333 39.5,365C 35.4644,357.215 32.7977,348.881 31.5,340C 31.8557,333.645 31.8557,327.145 31.5,320.5 Z"/></g>
</svg>
